<svg xmlns="http://www.w3.org/2000/svg" viewBox="0 0 200 200" width="200" height="200">
  <defs>
    <radialGradient id="g1" cx="50%" cy="50%" r="50%">
      <stop offset="0%" stop-color="#0d9488"/>
      <stop offset="100%" stop-color="#134e4a"/>
    </radialGradient>
    <radialGradient id="g2" cx="50%" cy="50%" r="50%">
      <stop offset="0%" stop-color="#14b8a6"/>
      <stop offset="100%" stop-color="#0f766e"/>
    </radialGradient>
    <radialGradient id="g3" cx="50%" cy="50%" r="50%">
      <stop offset="0%" stop-color="#2dd4bf"/>
      <stop offset="100%" stop-color="#0d9488"/>
    </radialGradient>
    <radialGradient id="g4" cx="50%" cy="50%" r="50%">
      <stop offset="0%" stop-color="#5eead4"/>
      <stop offset="100%" stop-color="#14b8a6"/>
    </radialGradient>
    <radialGradient id="g5" cx="50%" cy="50%" r="50%">
      <stop offset="0%" stop-color="#99f6e4"/>
      <stop offset="100%" stop-color="#2dd4bf"/>
    </radialGradient>
    <radialGradient id="g6" cx="50%" cy="50%" r="50%">
      <stop offset="0%" stop-color="#5eead4"/>
      <stop offset="100%" stop-color="#0d9488"/>
    </radialGradient>
  </defs>

  <g transform="translate(100,100)">
    <ellipse cx="-28" cy="-38" rx="22" ry="44" transform="rotate(-60)" fill="url(#g1)" opacity="0.95"/>
    <ellipse cx="-44" cy="0" rx="22" ry="44" transform="rotate(-120)" fill="url(#g2)" opacity="0.95"/>
    <ellipse cx="-28" cy="38" rx="22" ry="44" transform="rotate(180)" fill="url(#g3)" opacity="0.95"/>
    <ellipse cx="28" cy="38" rx="22" ry="44" transform="rotate(120)" fill="url(#g4)" opacity="0.95"/>
    <ellipse cx="44" cy="0" rx="22" ry="44" transform="rotate(60)" fill="url(#g5)" opacity="0.95"/>
    <ellipse cx="28" cy="-38" rx="22" ry="44" transform="rotate(0)" fill="url(#g6)" opacity="0.95"/>

    <circle cx="0" cy="0" r="12" fill="#0f766e"/>
    <circle cx="0" cy="0" r="8" fill="#134e4a"/>
    <circle cx="0" cy="0" r="4" fill="#ccfbf1" opacity="0.6"/>
  </g>
</svg>
